<svg width="61" height="58" viewBox="0 0 61 58" fill="none" xmlns="http://www.w3.org/2000/svg">
<path d="M22.8747 52.4421H38.1247C50.833 52.4421 55.9163 47.6746 55.9163 35.756V21.4536C55.9163 9.53492 50.833 4.76746 38.1247 4.76746H22.8747C10.1663 4.76746 5.08301 9.53492 5.08301 21.4536V35.756C5.08301 47.6746 10.1663 52.4421 22.8747 52.4421Z" stroke="#171717" stroke-width="1.5" stroke-linecap="round" stroke-linejoin="round"/>
<path d="M46.7164 36.3995V18.0686C46.7164 16.2332 45.1405 14.8983 43.2088 15.0413H43.1072C39.7014 15.3035 34.5418 16.9483 31.6443 18.6408L31.3647 18.8077C30.9072 19.0699 30.1192 19.0699 29.6363 18.8077L29.2297 18.5693C26.3576 16.8768 21.198 15.2797 17.7922 15.0175C15.8605 14.8744 14.2847 16.2332 14.2847 18.0449V36.3995C14.2847 37.8536 15.5555 39.2362 17.1059 39.4031L17.5634 39.4746C21.0709 39.9036 26.5102 41.5961 29.611 43.1932L29.6872 43.2171C30.1192 43.4554 30.8309 43.4554 31.2375 43.2171C34.3384 41.5961 39.803 39.9275 43.3359 39.4746L43.8697 39.4031C45.4455 39.2362 46.7164 37.8775 46.7164 36.3995Z" stroke="#171717" stroke-width="1.5" stroke-linecap="round" stroke-linejoin="round"/>
<path d="M30.5 19.3083V42.0968" stroke="#171717" stroke-width="1.5" stroke-linecap="round" stroke-linejoin="round"/>
</svg>
