<svg width="993" height="290" viewBox="0 0 993 290" fill="none" xmlns="http://www.w3.org/2000/svg">
<mask id="path-1-inside-1_437_21" fill="white">
<path d="M78.8251 66.713C86.0027 67.9947 92.0908 71.7757 97.0895 78.0561C102.088 84.3365 104.588 91.45 104.588 99.3966C104.588 106.19 102.793 112.342 99.2043 117.853C95.7437 123.236 90.681 127.53 84.0161 130.734C77.3512 133.81 69.5968 135.349 60.753 135.349H7.30575V1.73031H58.2537C67.3538 1.73031 75.1723 3.26836 81.709 6.34447C88.2457 9.42057 93.1803 13.5861 96.5127 18.8411C99.8452 23.968 101.511 29.7357 101.511 36.1442C101.511 43.8345 99.4607 50.243 95.3592 55.3699C91.2577 60.4967 85.7464 64.2777 78.8251 66.713ZM29.223 57.8692H56.3311C63.5087 57.8692 69.0841 56.2671 73.0574 53.0628C77.1589 49.7303 79.2097 44.988 79.2097 38.8358C79.2097 32.8118 77.1589 28.1335 73.0574 24.8011C69.0841 21.3405 63.5087 19.6102 56.3311 19.6102H29.223V57.8692ZM58.8305 117.469C66.2644 117.469 72.0962 115.674 76.3258 112.086C80.5555 108.497 82.6703 103.498 82.6703 97.0895C82.6703 90.5528 80.4273 85.3619 75.9413 81.5167C71.4553 77.6716 65.4954 75.749 58.0614 75.749H29.223V117.469H58.8305Z"/>
<path d="M191.273 136.694C178.84 136.694 167.369 133.811 156.859 128.043C146.477 122.147 138.21 114.008 132.058 103.626C126.034 93.1162 123.022 81.3245 123.022 68.251C123.022 55.1776 126.034 43.45 132.058 33.0681C138.21 22.6863 146.477 14.6115 156.859 8.8438C167.369 2.94793 178.84 0 191.273 0C203.833 0 215.305 2.94793 225.687 8.8438C236.197 14.6115 244.464 22.6863 250.488 33.0681C256.512 43.45 259.524 55.1776 259.524 68.251C259.524 81.3245 256.512 93.1162 250.488 103.626C244.464 114.008 236.197 122.147 225.687 128.043C215.305 133.811 203.833 136.694 191.273 136.694ZM191.273 117.661C200.116 117.661 207.999 115.674 214.92 111.701C221.841 107.6 227.225 101.832 231.07 94.3979C235.043 86.8358 237.03 78.1202 237.03 68.251C237.03 58.3819 235.043 49.7303 231.07 42.2964C227.225 34.8625 221.841 29.1589 214.92 25.1856C207.999 21.2123 200.116 19.2256 191.273 19.2256C182.429 19.2256 174.546 21.2123 167.625 25.1856C160.704 29.1589 155.257 34.8625 151.283 42.2964C147.438 49.7303 145.516 58.3819 145.516 68.251C145.516 78.1202 147.438 86.8358 151.283 94.3979C155.257 101.832 160.704 107.6 167.625 111.701C174.546 115.674 182.429 117.661 191.273 117.661Z"/>
<path d="M512.24 135.349L460.523 75.5568V135.349H438.606V1.73031H460.523V62.6756L512.432 1.73031H539.925L481.864 68.6356L540.886 135.349H512.24Z"/>
<path d="M0 221.455C0 208.382 3.01202 196.654 9.03605 186.272C15.1883 175.891 23.4553 167.816 33.8371 162.048C44.3472 156.152 55.8185 153.204 68.251 153.204C82.478 153.204 95.1029 156.729 106.126 163.778C117.276 170.7 125.351 180.569 130.35 193.386H104.011C100.55 186.337 95.7437 181.082 89.5915 177.621C83.4393 174.16 76.3258 172.43 68.251 172.43C59.4072 172.43 51.5247 174.417 44.6035 178.39C37.6823 182.363 32.235 188.067 28.2617 195.501C24.4166 202.935 22.494 211.586 22.494 221.455C22.494 231.325 24.4166 239.976 28.2617 247.41C32.235 254.844 37.6823 260.612 44.6035 264.713C51.5247 268.686 59.4072 270.673 68.251 270.673C76.3258 270.673 83.4393 268.943 89.5915 265.482C95.7437 262.022 100.55 256.767 104.011 249.717H130.35C125.351 262.534 117.276 272.403 106.126 279.325C95.1029 286.246 82.478 289.706 68.251 289.706C55.6903 289.706 44.219 286.823 33.8371 281.055C23.4553 275.159 15.1883 267.02 9.03605 256.638C3.01202 246.256 0 234.529 0 221.455Z"/>
<path d="M227.331 288.553L196.57 235.106H179.844V288.553H157.927V154.935H204.068C214.322 154.935 222.973 156.729 230.023 160.318C237.2 163.907 242.519 168.713 245.98 174.737C249.569 180.761 251.363 187.49 251.363 194.924C251.363 203.64 248.8 211.586 243.673 218.764C238.674 225.813 230.92 230.62 220.41 233.183L253.478 288.553H227.331ZM179.844 217.61H204.068C212.271 217.61 218.423 215.56 222.525 211.458C226.754 207.357 228.869 201.845 228.869 194.924C228.869 188.003 226.819 182.62 222.717 178.774C218.616 174.801 212.399 172.814 204.068 172.814H179.844V217.61Z"/>
<path d="M480.943 289.899C471.971 289.899 463.896 288.361 456.719 285.285C449.541 282.08 443.902 277.594 439.8 271.827C435.699 266.059 433.648 259.33 433.648 251.64H457.103C457.616 257.407 459.859 262.15 463.832 265.867C467.934 269.584 473.637 271.442 480.943 271.442C488.505 271.442 494.401 269.648 498.631 266.059C502.86 262.342 504.975 257.6 504.975 251.832C504.975 247.346 503.629 243.693 500.938 240.873C498.374 238.054 495.106 235.875 491.133 234.337C487.287 232.799 481.904 231.132 474.983 229.338C466.267 227.031 459.154 224.724 453.643 222.417C448.259 219.981 443.645 216.264 439.8 211.266C435.955 206.267 434.032 199.602 434.032 191.271C434.032 183.581 435.955 176.852 439.8 171.084C443.645 165.317 449.028 160.895 455.95 157.819C462.871 154.742 470.882 153.204 479.982 153.204C492.927 153.204 503.501 156.473 511.704 163.009C520.035 169.418 524.649 178.262 525.546 189.541H501.322C500.938 184.67 498.631 180.505 494.401 177.044C490.171 173.584 484.596 171.853 477.675 171.853C471.394 171.853 466.267 173.455 462.294 176.66C458.321 179.864 456.334 184.478 456.334 190.502C456.334 194.604 457.552 198 459.987 200.692C462.55 203.255 465.755 205.306 469.6 206.844C473.445 208.382 478.7 210.048 485.365 211.843C494.209 214.278 501.386 216.713 506.898 219.148C512.537 221.584 517.279 225.365 521.125 230.491C525.098 235.49 527.084 242.219 527.084 250.678C527.084 257.471 525.226 263.88 521.509 269.904C517.92 275.928 512.601 280.799 505.552 284.516C498.631 288.104 490.428 289.899 480.943 289.899Z"/>
<path d="M598.895 289.899C589.923 289.899 581.849 288.361 574.671 285.285C567.493 282.08 561.854 277.594 557.752 271.827C553.651 266.059 551.6 259.33 551.6 251.64H575.055C575.568 257.407 577.811 262.15 581.784 265.867C585.886 269.584 591.59 271.442 598.895 271.442C606.457 271.442 612.353 269.648 616.583 266.059C620.813 262.342 622.927 257.6 622.927 251.832C622.927 247.346 621.582 243.693 618.89 240.873C616.327 238.054 613.058 235.875 609.085 234.337C605.24 232.799 599.857 231.132 592.935 229.338C584.22 227.031 577.106 224.724 571.595 222.417C566.212 219.981 561.598 216.264 557.752 211.266C553.907 206.267 551.985 199.602 551.985 191.271C551.985 183.581 553.907 176.852 557.752 171.084C561.598 165.317 566.981 160.895 573.902 157.819C580.823 154.742 588.834 153.204 597.934 153.204C610.879 153.204 621.453 156.473 629.656 163.009C637.987 169.418 642.602 178.262 643.499 189.541H619.274C618.89 184.67 616.583 180.505 612.353 177.044C608.124 173.584 602.548 171.853 595.627 171.853C589.347 171.853 584.22 173.455 580.246 176.66C576.273 179.864 574.286 184.478 574.286 190.502C574.286 194.604 575.504 198 577.939 200.692C580.503 203.255 583.707 205.306 587.552 206.844C591.397 208.382 596.652 210.048 603.317 211.843C612.161 214.278 619.339 216.713 624.85 219.148C630.489 221.584 635.232 225.365 639.077 230.491C643.05 235.49 645.037 242.219 645.037 250.678C645.037 257.471 643.178 263.88 639.461 269.904C635.873 275.928 630.554 280.799 623.504 284.516C616.583 288.104 608.38 289.899 598.895 289.899Z"/>
<path d="M694.738 154.935V288.553H672.821V154.935H694.738Z"/>
<path d="M835.215 288.553H813.297L747.353 188.772V288.553H725.436V154.742H747.353L813.297 254.331V154.742H835.215V288.553Z"/>
<path d="M962.623 193.386C959.163 186.721 954.356 181.722 948.204 178.39C942.052 174.929 934.939 173.199 926.864 173.199C918.02 173.199 910.138 175.186 903.216 179.159C896.295 183.132 890.848 188.772 886.874 196.078C883.029 203.383 881.107 211.843 881.107 221.455C881.107 231.068 883.029 239.592 886.874 247.025C890.848 254.331 896.295 259.971 903.216 263.944C910.138 267.917 918.02 269.904 926.864 269.904C938.784 269.904 948.461 266.572 955.895 259.907C963.328 253.242 967.879 244.206 969.545 232.799H919.366V215.303H993V232.414C991.59 242.796 987.873 252.345 981.849 261.06C975.953 269.776 968.199 276.761 958.586 282.016C949.101 287.143 938.527 289.706 926.864 289.706C914.303 289.706 902.832 286.823 892.45 281.055C882.068 275.159 873.801 267.02 867.649 256.638C861.625 246.256 858.613 234.529 858.613 221.455C858.613 208.382 861.625 196.654 867.649 186.272C873.801 175.891 882.068 167.816 892.45 162.048C902.96 156.152 914.431 153.204 926.864 153.204C941.091 153.204 953.716 156.729 964.738 163.778C975.889 170.7 983.964 180.569 988.963 193.386H962.623Z"/>
<path d="M284.275 67.7584C284.275 32.0885 313.191 3.17224 348.861 3.17224C384.531 3.17224 413.447 32.0885 413.447 67.7584V223.967C413.447 259.637 384.531 288.553 348.861 288.553C313.191 288.553 284.275 259.637 284.275 223.967V67.7584Z"/>
</mask>
<path d="M78.8251 66.713C86.0027 67.9947 92.0908 71.7757 97.0895 78.0561C102.088 84.3365 104.588 91.45 104.588 99.3966C104.588 106.19 102.793 112.342 99.2043 117.853C95.7437 123.236 90.681 127.53 84.0161 130.734C77.3512 133.81 69.5968 135.349 60.753 135.349H7.30575V1.73031H58.2537C67.3538 1.73031 75.1723 3.26836 81.709 6.34447C88.2457 9.42057 93.1803 13.5861 96.5127 18.8411C99.8452 23.968 101.511 29.7357 101.511 36.1442C101.511 43.8345 99.4607 50.243 95.3592 55.3699C91.2577 60.4967 85.7464 64.2777 78.8251 66.713ZM29.223 57.8692H56.3311C63.5087 57.8692 69.0841 56.2671 73.0574 53.0628C77.1589 49.7303 79.2097 44.988 79.2097 38.8358C79.2097 32.8118 77.1589 28.1335 73.0574 24.8011C69.0841 21.3405 63.5087 19.6102 56.3311 19.6102H29.223V57.8692ZM58.8305 117.469C66.2644 117.469 72.0962 115.674 76.3258 112.086C80.5555 108.497 82.6703 103.498 82.6703 97.0895C82.6703 90.5528 80.4273 85.3619 75.9413 81.5167C71.4553 77.6716 65.4954 75.749 58.0614 75.749H29.223V117.469H58.8305Z" fill="black"/>
<path d="M191.273 136.694C178.84 136.694 167.369 133.811 156.859 128.043C146.477 122.147 138.21 114.008 132.058 103.626C126.034 93.1162 123.022 81.3245 123.022 68.251C123.022 55.1776 126.034 43.45 132.058 33.0681C138.21 22.6863 146.477 14.6115 156.859 8.8438C167.369 2.94793 178.84 0 191.273 0C203.833 0 215.305 2.94793 225.687 8.8438C236.197 14.6115 244.464 22.6863 250.488 33.0681C256.512 43.45 259.524 55.1776 259.524 68.251C259.524 81.3245 256.512 93.1162 250.488 103.626C244.464 114.008 236.197 122.147 225.687 128.043C215.305 133.811 203.833 136.694 191.273 136.694ZM191.273 117.661C200.116 117.661 207.999 115.674 214.92 111.701C221.841 107.6 227.225 101.832 231.07 94.3979C235.043 86.8358 237.03 78.1202 237.03 68.251C237.03 58.3819 235.043 49.7303 231.07 42.2964C227.225 34.8625 221.841 29.1589 214.92 25.1856C207.999 21.2123 200.116 19.2256 191.273 19.2256C182.429 19.2256 174.546 21.2123 167.625 25.1856C160.704 29.1589 155.257 34.8625 151.283 42.2964C147.438 49.7303 145.516 58.3819 145.516 68.251C145.516 78.1202 147.438 86.8358 151.283 94.3979C155.257 101.832 160.704 107.6 167.625 111.701C174.546 115.674 182.429 117.661 191.273 117.661Z" fill="black"/>
<path d="M512.24 135.349L460.523 75.5568V135.349H438.606V1.73031H460.523V62.6756L512.432 1.73031H539.925L481.864 68.6356L540.886 135.349H512.24Z" fill="black"/>
<path d="M0 221.455C0 208.382 3.01202 196.654 9.03605 186.272C15.1883 175.891 23.4553 167.816 33.8371 162.048C44.3472 156.152 55.8185 153.204 68.251 153.204C82.478 153.204 95.1029 156.729 106.126 163.778C117.276 170.7 125.351 180.569 130.35 193.386H104.011C100.55 186.337 95.7437 181.082 89.5915 177.621C83.4393 174.16 76.3258 172.43 68.251 172.43C59.4072 172.43 51.5247 174.417 44.6035 178.39C37.6823 182.363 32.235 188.067 28.2617 195.501C24.4166 202.935 22.494 211.586 22.494 221.455C22.494 231.325 24.4166 239.976 28.2617 247.41C32.235 254.844 37.6823 260.612 44.6035 264.713C51.5247 268.686 59.4072 270.673 68.251 270.673C76.3258 270.673 83.4393 268.943 89.5915 265.482C95.7437 262.022 100.55 256.767 104.011 249.717H130.35C125.351 262.534 117.276 272.403 106.126 279.325C95.1029 286.246 82.478 289.706 68.251 289.706C55.6903 289.706 44.219 286.823 33.8371 281.055C23.4553 275.159 15.1883 267.02 9.03605 256.638C3.01202 246.256 0 234.529 0 221.455Z" fill="black"/>
<path d="M227.331 288.553L196.57 235.106H179.844V288.553H157.927V154.935H204.068C214.322 154.935 222.973 156.729 230.023 160.318C237.2 163.907 242.519 168.713 245.98 174.737C249.569 180.761 251.363 187.49 251.363 194.924C251.363 203.64 248.8 211.586 243.673 218.764C238.674 225.813 230.92 230.62 220.41 233.183L253.478 288.553H227.331ZM179.844 217.61H204.068C212.271 217.61 218.423 215.56 222.525 211.458C226.754 207.357 228.869 201.845 228.869 194.924C228.869 188.003 226.819 182.62 222.717 178.774C218.616 174.801 212.399 172.814 204.068 172.814H179.844V217.61Z" fill="black"/>
<path d="M480.943 289.899C471.971 289.899 463.896 288.361 456.719 285.285C449.541 282.08 443.902 277.594 439.8 271.827C435.699 266.059 433.648 259.33 433.648 251.64H457.103C457.616 257.407 459.859 262.15 463.832 265.867C467.934 269.584 473.637 271.442 480.943 271.442C488.505 271.442 494.401 269.648 498.631 266.059C502.86 262.342 504.975 257.6 504.975 251.832C504.975 247.346 503.629 243.693 500.938 240.873C498.374 238.054 495.106 235.875 491.133 234.337C487.287 232.799 481.904 231.132 474.983 229.338C466.267 227.031 459.154 224.724 453.643 222.417C448.259 219.981 443.645 216.264 439.8 211.266C435.955 206.267 434.032 199.602 434.032 191.271C434.032 183.581 435.955 176.852 439.8 171.084C443.645 165.317 449.028 160.895 455.95 157.819C462.871 154.742 470.882 153.204 479.982 153.204C492.927 153.204 503.501 156.473 511.704 163.009C520.035 169.418 524.649 178.262 525.546 189.541H501.322C500.938 184.67 498.631 180.505 494.401 177.044C490.171 173.584 484.596 171.853 477.675 171.853C471.394 171.853 466.267 173.455 462.294 176.66C458.321 179.864 456.334 184.478 456.334 190.502C456.334 194.604 457.552 198 459.987 200.692C462.55 203.255 465.755 205.306 469.6 206.844C473.445 208.382 478.7 210.048 485.365 211.843C494.209 214.278 501.386 216.713 506.898 219.148C512.537 221.584 517.279 225.365 521.125 230.491C525.098 235.49 527.084 242.219 527.084 250.678C527.084 257.471 525.226 263.88 521.509 269.904C517.92 275.928 512.601 280.799 505.552 284.516C498.631 288.104 490.428 289.899 480.943 289.899Z" fill="black"/>
<path d="M598.895 289.899C589.923 289.899 581.849 288.361 574.671 285.285C567.493 282.08 561.854 277.594 557.752 271.827C553.651 266.059 551.6 259.33 551.6 251.64H575.055C575.568 257.407 577.811 262.15 581.784 265.867C585.886 269.584 591.59 271.442 598.895 271.442C606.457 271.442 612.353 269.648 616.583 266.059C620.813 262.342 622.927 257.6 622.927 251.832C622.927 247.346 621.582 243.693 618.89 240.873C616.327 238.054 613.058 235.875 609.085 234.337C605.24 232.799 599.857 231.132 592.935 229.338C584.22 227.031 577.106 224.724 571.595 222.417C566.212 219.981 561.598 216.264 557.752 211.266C553.907 206.267 551.985 199.602 551.985 191.271C551.985 183.581 553.907 176.852 557.752 171.084C561.598 165.317 566.981 160.895 573.902 157.819C580.823 154.742 588.834 153.204 597.934 153.204C610.879 153.204 621.453 156.473 629.656 163.009C637.987 169.418 642.602 178.262 643.499 189.541H619.274C618.89 184.67 616.583 180.505 612.353 177.044C608.124 173.584 602.548 171.853 595.627 171.853C589.347 171.853 584.22 173.455 580.246 176.66C576.273 179.864 574.286 184.478 574.286 190.502C574.286 194.604 575.504 198 577.939 200.692C580.503 203.255 583.707 205.306 587.552 206.844C591.397 208.382 596.652 210.048 603.317 211.843C612.161 214.278 619.339 216.713 624.85 219.148C630.489 221.584 635.232 225.365 639.077 230.491C643.05 235.49 645.037 242.219 645.037 250.678C645.037 257.471 643.178 263.88 639.461 269.904C635.873 275.928 630.554 280.799 623.504 284.516C616.583 288.104 608.38 289.899 598.895 289.899Z" fill="black"/>
<path d="M694.738 154.935V288.553H672.821V154.935H694.738Z" fill="black"/>
<path d="M835.215 288.553H813.297L747.353 188.772V288.553H725.436V154.742H747.353L813.297 254.331V154.742H835.215V288.553Z" fill="black"/>
<path d="M962.623 193.386C959.163 186.721 954.356 181.722 948.204 178.39C942.052 174.929 934.939 173.199 926.864 173.199C918.02 173.199 910.138 175.186 903.216 179.159C896.295 183.132 890.848 188.772 886.874 196.078C883.029 203.383 881.107 211.843 881.107 221.455C881.107 231.068 883.029 239.592 886.874 247.025C890.848 254.331 896.295 259.971 903.216 263.944C910.138 267.917 918.02 269.904 926.864 269.904C938.784 269.904 948.461 266.572 955.895 259.907C963.328 253.242 967.879 244.206 969.545 232.799H919.366V215.303H993V232.414C991.59 242.796 987.873 252.345 981.849 261.06C975.953 269.776 968.199 276.761 958.586 282.016C949.101 287.143 938.527 289.706 926.864 289.706C914.303 289.706 902.832 286.823 892.45 281.055C882.068 275.159 873.801 267.02 867.649 256.638C861.625 246.256 858.613 234.529 858.613 221.455C858.613 208.382 861.625 196.654 867.649 186.272C873.801 175.891 882.068 167.816 892.45 162.048C902.96 156.152 914.431 153.204 926.864 153.204C941.091 153.204 953.716 156.729 964.738 163.778C975.889 170.7 983.964 180.569 988.963 193.386H962.623Z" fill="black"/>
<path d="M78.8251 66.713C86.0027 67.9947 92.0908 71.7757 97.0895 78.0561C102.088 84.3365 104.588 91.45 104.588 99.3966C104.588 106.19 102.793 112.342 99.2043 117.853C95.7437 123.236 90.681 127.53 84.0161 130.734C77.3512 133.81 69.5968 135.349 60.753 135.349H7.30575V1.73031H58.2537C67.3538 1.73031 75.1723 3.26836 81.709 6.34447C88.2457 9.42057 93.1803 13.5861 96.5127 18.8411C99.8452 23.968 101.511 29.7357 101.511 36.1442C101.511 43.8345 99.4607 50.243 95.3592 55.3699C91.2577 60.4967 85.7464 64.2777 78.8251 66.713ZM29.223 57.8692H56.3311C63.5087 57.8692 69.0841 56.2671 73.0574 53.0628C77.1589 49.7303 79.2097 44.988 79.2097 38.8358C79.2097 32.8118 77.1589 28.1335 73.0574 24.8011C69.0841 21.3405 63.5087 19.6102 56.3311 19.6102H29.223V57.8692ZM58.8305 117.469C66.2644 117.469 72.0962 115.674 76.3258 112.086C80.5555 108.497 82.6703 103.498 82.6703 97.0895C82.6703 90.5528 80.4273 85.3619 75.9413 81.5167C71.4553 77.6716 65.4954 75.749 58.0614 75.749H29.223V117.469H58.8305Z" stroke="#005555" stroke-width="30.0401" mask="url(#path-1-inside-1_437_21)"/>
<path d="M191.273 136.694C178.84 136.694 167.369 133.811 156.859 128.043C146.477 122.147 138.21 114.008 132.058 103.626C126.034 93.1162 123.022 81.3245 123.022 68.251C123.022 55.1776 126.034 43.45 132.058 33.0681C138.21 22.6863 146.477 14.6115 156.859 8.8438C167.369 2.94793 178.84 0 191.273 0C203.833 0 215.305 2.94793 225.687 8.8438C236.197 14.6115 244.464 22.6863 250.488 33.0681C256.512 43.45 259.524 55.1776 259.524 68.251C259.524 81.3245 256.512 93.1162 250.488 103.626C244.464 114.008 236.197 122.147 225.687 128.043C215.305 133.811 203.833 136.694 191.273 136.694ZM191.273 117.661C200.116 117.661 207.999 115.674 214.92 111.701C221.841 107.6 227.225 101.832 231.07 94.3979C235.043 86.8358 237.03 78.1202 237.03 68.251C237.03 58.3819 235.043 49.7303 231.07 42.2964C227.225 34.8625 221.841 29.1589 214.92 25.1856C207.999 21.2123 200.116 19.2256 191.273 19.2256C182.429 19.2256 174.546 21.2123 167.625 25.1856C160.704 29.1589 155.257 34.8625 151.283 42.2964C147.438 49.7303 145.516 58.3819 145.516 68.251C145.516 78.1202 147.438 86.8358 151.283 94.3979C155.257 101.832 160.704 107.6 167.625 111.701C174.546 115.674 182.429 117.661 191.273 117.661Z" stroke="#005555" stroke-width="30.0401" mask="url(#path-1-inside-1_437_21)"/>
<path d="M512.24 135.349L460.523 75.5568V135.349H438.606V1.73031H460.523V62.6756L512.432 1.73031H539.925L481.864 68.6356L540.886 135.349H512.24Z" stroke="#005555" stroke-width="30.0401" mask="url(#path-1-inside-1_437_21)"/>
<path d="M0 221.455C0 208.382 3.01202 196.654 9.03605 186.272C15.1883 175.891 23.4553 167.816 33.8371 162.048C44.3472 156.152 55.8185 153.204 68.251 153.204C82.478 153.204 95.1029 156.729 106.126 163.778C117.276 170.7 125.351 180.569 130.35 193.386H104.011C100.55 186.337 95.7437 181.082 89.5915 177.621C83.4393 174.16 76.3258 172.43 68.251 172.43C59.4072 172.43 51.5247 174.417 44.6035 178.39C37.6823 182.363 32.235 188.067 28.2617 195.501C24.4166 202.935 22.494 211.586 22.494 221.455C22.494 231.325 24.4166 239.976 28.2617 247.41C32.235 254.844 37.6823 260.612 44.6035 264.713C51.5247 268.686 59.4072 270.673 68.251 270.673C76.3258 270.673 83.4393 268.943 89.5915 265.482C95.7437 262.022 100.55 256.767 104.011 249.717H130.35C125.351 262.534 117.276 272.403 106.126 279.325C95.1029 286.246 82.478 289.706 68.251 289.706C55.6903 289.706 44.219 286.823 33.8371 281.055C23.4553 275.159 15.1883 267.02 9.03605 256.638C3.01202 246.256 0 234.529 0 221.455Z" stroke="#005555" stroke-width="30.0401" mask="url(#path-1-inside-1_437_21)"/>
<path d="M227.331 288.553L196.57 235.106H179.844V288.553H157.927V154.935H204.068C214.322 154.935 222.973 156.729 230.023 160.318C237.2 163.907 242.519 168.713 245.98 174.737C249.569 180.761 251.363 187.49 251.363 194.924C251.363 203.64 248.8 211.586 243.673 218.764C238.674 225.813 230.92 230.62 220.41 233.183L253.478 288.553H227.331ZM179.844 217.61H204.068C212.271 217.61 218.423 215.56 222.525 211.458C226.754 207.357 228.869 201.845 228.869 194.924C228.869 188.003 226.819 182.62 222.717 178.774C218.616 174.801 212.399 172.814 204.068 172.814H179.844V217.61Z" stroke="#005555" stroke-width="30.0401" mask="url(#path-1-inside-1_437_21)"/>
<path d="M480.943 289.899C471.971 289.899 463.896 288.361 456.719 285.285C449.541 282.08 443.902 277.594 439.8 271.827C435.699 266.059 433.648 259.33 433.648 251.64H457.103C457.616 257.407 459.859 262.15 463.832 265.867C467.934 269.584 473.637 271.442 480.943 271.442C488.505 271.442 494.401 269.648 498.631 266.059C502.86 262.342 504.975 257.6 504.975 251.832C504.975 247.346 503.629 243.693 500.938 240.873C498.374 238.054 495.106 235.875 491.133 234.337C487.287 232.799 481.904 231.132 474.983 229.338C466.267 227.031 459.154 224.724 453.643 222.417C448.259 219.981 443.645 216.264 439.8 211.266C435.955 206.267 434.032 199.602 434.032 191.271C434.032 183.581 435.955 176.852 439.8 171.084C443.645 165.317 449.028 160.895 455.95 157.819C462.871 154.742 470.882 153.204 479.982 153.204C492.927 153.204 503.501 156.473 511.704 163.009C520.035 169.418 524.649 178.262 525.546 189.541H501.322C500.938 184.67 498.631 180.505 494.401 177.044C490.171 173.584 484.596 171.853 477.675 171.853C471.394 171.853 466.267 173.455 462.294 176.66C458.321 179.864 456.334 184.478 456.334 190.502C456.334 194.604 457.552 198 459.987 200.692C462.55 203.255 465.755 205.306 469.6 206.844C473.445 208.382 478.7 210.048 485.365 211.843C494.209 214.278 501.386 216.713 506.898 219.148C512.537 221.584 517.279 225.365 521.125 230.491C525.098 235.49 527.084 242.219 527.084 250.678C527.084 257.471 525.226 263.88 521.509 269.904C517.92 275.928 512.601 280.799 505.552 284.516C498.631 288.104 490.428 289.899 480.943 289.899Z" stroke="#005555" stroke-width="30.0401" mask="url(#path-1-inside-1_437_21)"/>
<path d="M598.895 289.899C589.923 289.899 581.849 288.361 574.671 285.285C567.493 282.08 561.854 277.594 557.752 271.827C553.651 266.059 551.6 259.33 551.6 251.64H575.055C575.568 257.407 577.811 262.15 581.784 265.867C585.886 269.584 591.59 271.442 598.895 271.442C606.457 271.442 612.353 269.648 616.583 266.059C620.813 262.342 622.927 257.6 622.927 251.832C622.927 247.346 621.582 243.693 618.89 240.873C616.327 238.054 613.058 235.875 609.085 234.337C605.24 232.799 599.857 231.132 592.935 229.338C584.22 227.031 577.106 224.724 571.595 222.417C566.212 219.981 561.598 216.264 557.752 211.266C553.907 206.267 551.985 199.602 551.985 191.271C551.985 183.581 553.907 176.852 557.752 171.084C561.598 165.317 566.981 160.895 573.902 157.819C580.823 154.742 588.834 153.204 597.934 153.204C610.879 153.204 621.453 156.473 629.656 163.009C637.987 169.418 642.602 178.262 643.499 189.541H619.274C618.89 184.67 616.583 180.505 612.353 177.044C608.124 173.584 602.548 171.853 595.627 171.853C589.347 171.853 584.22 173.455 580.246 176.66C576.273 179.864 574.286 184.478 574.286 190.502C574.286 194.604 575.504 198 577.939 200.692C580.503 203.255 583.707 205.306 587.552 206.844C591.397 208.382 596.652 210.048 603.317 211.843C612.161 214.278 619.339 216.713 624.85 219.148C630.489 221.584 635.232 225.365 639.077 230.491C643.05 235.49 645.037 242.219 645.037 250.678C645.037 257.471 643.178 263.88 639.461 269.904C635.873 275.928 630.554 280.799 623.504 284.516C616.583 288.104 608.38 289.899 598.895 289.899Z" stroke="#005555" stroke-width="30.0401" mask="url(#path-1-inside-1_437_21)"/>
<path d="M694.738 154.935V288.553H672.821V154.935H694.738Z" stroke="#005555" stroke-width="30.0401" mask="url(#path-1-inside-1_437_21)"/>
<path d="M835.215 288.553H813.297L747.353 188.772V288.553H725.436V154.742H747.353L813.297 254.331V154.742H835.215V288.553Z" stroke="#005555" stroke-width="30.0401" mask="url(#path-1-inside-1_437_21)"/>
<path d="M962.623 193.386C959.163 186.721 954.356 181.722 948.204 178.39C942.052 174.929 934.939 173.199 926.864 173.199C918.02 173.199 910.138 175.186 903.216 179.159C896.295 183.132 890.848 188.772 886.874 196.078C883.029 203.383 881.107 211.843 881.107 221.455C881.107 231.068 883.029 239.592 886.874 247.025C890.848 254.331 896.295 259.971 903.216 263.944C910.138 267.917 918.02 269.904 926.864 269.904C938.784 269.904 948.461 266.572 955.895 259.907C963.328 253.242 967.879 244.206 969.545 232.799H919.366V215.303H993V232.414C991.59 242.796 987.873 252.345 981.849 261.06C975.953 269.776 968.199 276.761 958.586 282.016C949.101 287.143 938.527 289.706 926.864 289.706C914.303 289.706 902.832 286.823 892.45 281.055C882.068 275.159 873.801 267.02 867.649 256.638C861.625 246.256 858.613 234.529 858.613 221.455C858.613 208.382 861.625 196.654 867.649 186.272C873.801 175.891 882.068 167.816 892.45 162.048C902.96 156.152 914.431 153.204 926.864 153.204C941.091 153.204 953.716 156.729 964.738 163.778C975.889 170.7 983.964 180.569 988.963 193.386H962.623Z" stroke="#005555" stroke-width="30.0401" mask="url(#path-1-inside-1_437_21)"/>
<path d="M284.275 67.7584C284.275 32.0885 313.191 3.17224 348.861 3.17224C384.531 3.17224 413.447 32.0885 413.447 67.7584V223.967C413.447 259.637 384.531 288.553 348.861 288.553C313.191 288.553 284.275 259.637 284.275 223.967V67.7584Z" stroke="#005555" stroke-width="30.0401" mask="url(#path-1-inside-1_437_21)"/>
</svg>
