<svg width="55" height="55" viewBox="0 0 55 55" fill="none" xmlns="http://www.w3.org/2000/svg">
<path d="M27.5024 -7.79757e-05C12.3499 -0.00138023 0.00138023 12.3451 7.79757e-05 27.4976C-0.00122427 42.6501 12.3452 54.9986 27.4977 54.9999C42.6502 55.0012 54.9988 42.6548 55.0001 27.5023C55.0014 12.3498 42.6549 0.00122427 27.5024 -7.79757e-05ZM38.6652 25.4934L28.9569 35.2C28.5444 35.6125 28.0219 35.805 27.4994 35.8049C26.9769 35.8049 26.4544 35.6123 26.0419 35.1998L16.3353 25.4915C15.5378 24.6939 15.5379 23.3739 16.3355 22.5765C17.1331 21.779 18.4531 21.7791 19.2505 22.5767L27.4998 30.8274L35.7505 22.5781C36.5481 21.7807 37.8681 21.7808 38.6655 22.5784C39.4629 23.376 39.4628 24.6685 38.6652 25.4934Z" fill="#006B61"/>
</svg>
