<svg width="140" height="35" viewBox="0 0 140 35" fill="none" xmlns="http://www.w3.org/2000/svg">
<path d="M13.9539 34.54C12.4059 34.54 10.8759 34.36 9.36394 34C7.88794 33.64 6.57394 33.1 5.42194 32.38C5.02594 32.092 4.75594 31.678 4.61194 31.138C4.46794 30.562 4.39594 29.878 4.39594 29.086C4.39594 27.682 4.66594 26.026 5.20594 24.118C5.74594 22.174 6.42994 20.176 7.25794 18.124C8.08594 16.072 8.94994 14.128 9.84994 12.292C10.7499 10.456 11.5599 8.944 12.2799 7.756C12.9639 6.712 13.8099 5.992 14.8179 5.596C15.8259 5.164 16.8879 4.948 18.0039 4.948C20.4159 4.948 21.4419 5.164 21.0819 5.596C20.3259 6.46 19.5339 7.594 18.7059 8.998C17.8779 10.402 17.1039 11.842 16.3839 13.318C15.6639 14.758 15.0519 16.018 14.5479 17.098C13.3599 19.618 12.3159 22.084 11.4159 24.496C10.5159 26.872 9.90394 28.798 9.57994 30.274C9.50794 30.562 9.47194 30.796 9.47194 30.976C9.47194 31.372 9.59794 31.732 9.84994 32.056C10.1019 32.344 10.5519 32.542 11.1999 32.65C11.4519 32.686 11.6859 32.722 11.9019 32.758C12.1539 32.758 12.4059 32.758 12.6579 32.758C14.0259 32.758 15.2859 32.416 16.4379 31.732C17.5899 31.048 18.3099 30.058 18.5979 28.762C18.7059 28.33 18.7419 27.862 18.7059 27.358C18.7059 26.494 18.5799 25.54 18.3279 24.496C18.0759 23.452 17.6979 22.48 17.1939 21.58C16.7259 20.68 16.1139 20.014 15.3579 19.582C14.9979 19.366 14.8179 19.114 14.8179 18.826C14.8179 18.502 15.0159 18.304 15.4119 18.232C16.2759 18.232 17.1579 17.89 18.0579 17.206C18.9939 16.522 19.8399 15.622 20.5959 14.506C21.3879 13.39 22.0179 12.184 22.4859 10.888C22.9899 9.556 23.2419 8.278 23.2419 7.054C23.2419 5.326 22.7199 4.138 21.6759 3.49C20.6679 2.806 19.4619 2.464 18.0579 2.464C16.8699 2.464 15.6459 2.644 14.3859 3.004C13.1259 3.328 12.0279 3.706 11.0919 4.138C9.07594 5.074 7.38394 6.28 6.01594 7.756C4.68394 9.232 3.90994 10.672 3.69394 12.076C3.51394 12.004 3.17194 11.914 2.66794 11.806C2.16394 11.698 1.65994 11.482 1.15594 11.158C0.687935 10.834 0.417935 10.366 0.345935 9.754C0.237935 8.494 0.543935 7.378 1.26394 6.406C2.01994 5.398 3.04594 4.552 4.34194 3.868C5.67394 3.148 7.13194 2.554 8.71594 2.086C10.3359 1.618 11.9739 1.276 13.6299 1.06C15.2859 0.843998 16.8339 0.735997 18.2739 0.735997C18.8859 0.735997 19.4619 0.753998 20.0019 0.789999C20.5419 0.825999 21.0279 0.879998 21.4599 0.951997C24.3399 1.42 26.4099 2.356 27.6699 3.76C28.9299 5.128 29.5599 6.658 29.5599 8.35C29.5599 9.862 29.1099 11.356 28.2099 12.832C27.3099 14.272 26.0679 15.496 24.4839 16.504C22.9359 17.476 21.1539 18.016 19.1379 18.124C21.2259 18.592 22.8279 19.6 23.9439 21.148C25.0959 22.66 25.6719 24.298 25.6719 26.062C25.6719 27.538 25.2399 28.96 24.3759 30.328C23.5119 31.696 22.1259 32.74 20.2179 33.46C18.3459 34.18 16.2579 34.54 13.9539 34.54ZM33.9706 34.378C31.6666 34.378 29.8666 34 28.5706 33.244C27.2746 32.488 26.6266 31.03 26.6266 28.87C26.6266 27.358 26.8606 25.774 27.3286 24.118C27.8326 22.426 28.5346 20.788 29.4346 19.204C30.3346 17.62 31.3966 16.18 32.6206 14.884C33.8446 13.588 35.1946 12.562 36.6706 11.806C38.1466 11.014 39.7126 10.618 41.3686 10.618C42.4486 10.618 43.4746 10.708 44.4466 10.888C45.4186 11.068 46.2106 11.482 46.8226 12.13C47.4346 12.742 47.7406 13.714 47.7406 15.046C47.7406 16.45 47.3626 18.268 46.6066 20.5C45.8506 22.732 44.8246 24.91 43.5286 27.034C43.4566 27.322 43.4206 27.61 43.4206 27.898C43.4206 28.294 43.4926 28.69 43.6366 29.086C43.8166 29.482 44.1226 29.68 44.5546 29.68C45.1306 29.68 45.7246 29.284 46.3366 28.492C46.9846 27.592 47.6506 26.512 48.3346 25.252C49.0186 23.992 49.5406 22.966 49.9006 22.174C49.9726 21.958 50.1346 21.85 50.3866 21.85C50.6386 21.85 50.8546 21.958 51.0346 22.174C51.2506 22.39 51.2686 22.642 51.0886 22.93C50.8006 23.47 50.4226 24.226 49.9546 25.198C49.4866 26.134 48.9466 27.088 48.3346 28.06C47.7226 29.032 47.0566 29.806 46.3366 30.382C45.7966 30.814 45.2206 31.03 44.6086 31.03C43.8886 31.03 43.3486 30.868 42.9886 30.544C42.6286 30.184 42.3406 29.68 42.1246 29.032C40.9726 30.58 39.6946 31.858 38.2906 32.866C36.8866 33.874 35.4466 34.378 33.9706 34.378ZM32.9446 32.704C33.3406 32.704 33.8806 32.182 34.5646 31.138C35.2486 30.094 35.9866 28.762 36.7786 27.142C37.5706 25.486 38.3446 23.812 39.1006 22.12C39.2446 21.832 39.4786 21.31 39.8026 20.554C40.1266 19.762 40.4686 18.898 40.8286 17.962C41.1886 16.99 41.4946 16.054 41.7466 15.154C41.9986 14.254 42.1246 13.534 42.1246 12.994C42.1246 12.382 41.9446 12.076 41.5846 12.076C41.2606 12.076 40.8466 12.4 40.3426 13.048C39.8386 13.66 39.2806 14.47 38.6686 15.478C38.0566 16.486 37.4626 17.566 36.8866 18.718C36.3106 19.87 35.8066 20.95 35.3746 21.958C34.9426 22.966 34.4926 24.1 34.0246 25.36C33.5566 26.62 33.1606 27.826 32.8366 28.978C32.5486 30.094 32.4046 30.994 32.4046 31.678C32.4046 32.362 32.5846 32.704 32.9446 32.704ZM54.7754 34.378C52.4714 34.378 50.6714 34 49.3754 33.244C48.0794 32.488 47.4314 31.03 47.4314 28.87C47.4314 27.358 47.6654 25.774 48.1334 24.118C48.6374 22.426 49.3394 20.788 50.2394 19.204C51.1394 17.62 52.2014 16.18 53.4254 14.884C54.6494 13.588 55.9994 12.562 57.4754 11.806C58.9514 11.014 60.5174 10.618 62.1734 10.618C63.2534 10.618 64.2794 10.708 65.2514 10.888C66.2234 11.068 67.0154 11.482 67.6274 12.13C68.2394 12.742 68.5454 13.714 68.5454 15.046C68.5454 16.45 68.1674 18.268 67.4114 20.5C66.6554 22.732 65.6294 24.91 64.3334 27.034C64.2614 27.322 64.2254 27.61 64.2254 27.898C64.2254 28.294 64.2974 28.69 64.4414 29.086C64.6214 29.482 64.9274 29.68 65.3594 29.68C65.9354 29.68 66.5294 29.284 67.1414 28.492C67.7894 27.592 68.4554 26.512 69.1394 25.252C69.8234 23.992 70.3454 22.966 70.7054 22.174C70.7774 21.958 70.9394 21.85 71.1914 21.85C71.4434 21.85 71.6594 21.958 71.8394 22.174C72.0554 22.39 72.0734 22.642 71.8934 22.93C71.6054 23.47 71.2274 24.226 70.7594 25.198C70.2914 26.134 69.7514 27.088 69.1394 28.06C68.5274 29.032 67.8614 29.806 67.1414 30.382C66.6014 30.814 66.0254 31.03 65.4134 31.03C64.6934 31.03 64.1534 30.868 63.7934 30.544C63.4334 30.184 63.1454 29.68 62.9294 29.032C61.7774 30.58 60.4994 31.858 59.0954 32.866C57.6914 33.874 56.2514 34.378 54.7754 34.378ZM53.7494 32.704C54.1454 32.704 54.6854 32.182 55.3694 31.138C56.0534 30.094 56.7914 28.762 57.5834 27.142C58.3754 25.486 59.1494 23.812 59.9054 22.12C60.0494 21.832 60.2834 21.31 60.6074 20.554C60.9314 19.762 61.2734 18.898 61.6334 17.962C61.9934 16.99 62.2994 16.054 62.5514 15.154C62.8034 14.254 62.9294 13.534 62.9294 12.994C62.9294 12.382 62.7494 12.076 62.3894 12.076C62.0654 12.076 61.6514 12.4 61.1474 13.048C60.6434 13.66 60.0854 14.47 59.4734 15.478C58.8614 16.486 58.2674 17.566 57.6914 18.718C57.1154 19.87 56.6114 20.95 56.1794 21.958C55.7474 22.966 55.2974 24.1 54.8294 25.36C54.3614 26.62 53.9654 27.826 53.6414 28.978C53.3534 30.094 53.2094 30.994 53.2094 31.678C53.2094 32.362 53.3894 32.704 53.7494 32.704ZM71.7462 34.324C71.2062 34.324 70.7022 34.27 70.2342 34.162C69.8022 34.09 69.2802 33.928 68.6682 33.676C67.8762 33.352 67.3002 32.794 66.9402 32.002C66.6162 31.174 66.4542 30.202 66.4542 29.086C66.4542 27.718 66.6702 26.206 67.1022 24.55C67.5702 22.894 68.1462 21.292 68.8302 19.744C69.4782 18.304 70.0182 17.062 70.4502 16.018C70.9182 14.938 71.3862 14.002 71.8542 13.21C72.3582 12.418 72.9702 11.716 73.6902 11.104C74.4102 10.456 75.3282 9.844 76.4442 9.268C77.3082 8.872 78.2442 8.674 79.2522 8.674C80.2602 8.674 81.1962 8.818 82.0602 9.106C82.4202 9.214 82.6002 9.358 82.6002 9.538C82.6002 9.682 82.4742 9.826 82.2222 9.97C81.8982 10.186 81.4662 10.564 80.9262 11.104C80.3862 11.608 79.8102 12.292 79.1982 13.156C78.8742 13.624 78.4422 14.29 77.9022 15.154C77.3622 16.018 76.9482 16.72 76.6602 17.26C76.3722 17.764 76.1382 18.196 75.9582 18.556C75.7782 18.88 75.6522 19.132 75.5802 19.312L74.6622 21.148C74.9862 20.608 75.4542 19.924 76.0662 19.096C76.7142 18.268 77.4162 17.422 78.1722 16.558C78.9642 15.658 79.7382 14.848 80.4942 14.128C81.2502 13.408 82.0602 12.706 82.9242 12.022C83.8242 11.302 84.7242 10.726 85.6242 10.294C86.5242 9.826 87.3522 9.592 88.1082 9.592C88.8282 9.592 89.4762 9.79 90.0522 10.186C90.6282 10.546 90.9162 10.924 90.9162 11.32C90.9162 11.752 90.5742 12.058 89.8902 12.238C88.4142 12.634 86.8302 13.264 85.1382 14.128C83.4462 14.956 81.9342 15.838 80.6022 16.774C80.6022 17.422 80.6562 18.304 80.7642 19.42C80.8722 20.536 80.9982 21.67 81.1422 22.822C81.3222 23.974 81.5022 24.946 81.6822 25.738C81.8262 26.35 82.0062 27.07 82.2222 27.898C82.4742 28.69 82.7982 29.392 83.1942 30.004C83.6262 30.58 84.1302 30.868 84.7062 30.868C84.9222 30.868 85.2102 30.778 85.5702 30.598C85.7142 30.454 85.7862 30.49 85.7862 30.706C85.7862 30.958 85.6962 31.138 85.5162 31.246C84.4002 32.182 83.3202 32.92 82.2762 33.46C81.2682 34 80.3502 34.27 79.5222 34.27C78.4782 34.27 77.7042 33.802 77.2002 32.866C76.7682 32.146 76.4622 31.354 76.2822 30.49C76.1022 29.59 75.9762 28.708 75.9042 27.844C75.9042 27.628 75.8862 27.394 75.8502 27.142C75.8502 26.854 75.8502 26.566 75.8502 26.278C75.8502 25.27 75.8862 24.262 75.9582 23.254C76.0302 22.21 76.1022 21.544 76.1742 21.256C75.4182 21.724 74.7162 22.552 74.0682 23.74C73.4202 24.892 72.8982 26.152 72.5022 27.52C72.1422 28.888 71.9622 30.13 71.9622 31.246C71.9622 31.75 71.9982 32.218 72.0702 32.65C72.1782 33.046 72.3402 33.352 72.5562 33.568C72.7722 33.82 72.7722 34.018 72.5562 34.162C72.4122 34.27 72.1422 34.324 71.7462 34.324ZM95.2286 34.81C92.6006 34.81 90.6926 34.216 89.5046 33.028C88.3526 31.84 87.7766 30.274 87.7766 28.33C87.7766 26.854 88.0826 25.234 88.6946 23.47C89.1626 22.03 89.7926 20.572 90.5846 19.096C91.3766 17.584 92.2946 16.198 93.3386 14.938C94.3826 13.642 95.5346 12.616 96.7946 11.86C98.0546 11.068 99.3866 10.672 100.791 10.672C102.591 10.672 104.049 10.96 105.165 11.536C106.317 12.076 106.893 12.976 106.893 14.236C106.893 15.172 106.515 16.342 105.759 17.746C104.751 19.69 103.275 21.292 101.331 22.552C99.3866 23.812 97.2086 24.532 94.7966 24.712C94.2566 26.188 93.9326 27.394 93.8246 28.33C93.7886 28.51 93.7706 28.69 93.7706 28.87C93.7706 29.014 93.7706 29.176 93.7706 29.356C93.7706 30.544 94.0406 31.408 94.5806 31.948C95.1206 32.452 95.7866 32.704 96.5786 32.704C98.0546 32.704 99.3506 32.326 100.467 31.57C101.583 30.814 102.555 29.86 103.383 28.708C104.247 27.556 104.985 26.404 105.597 25.252C105.957 24.604 106.263 24.01 106.515 23.47C106.767 22.894 106.965 22.48 107.109 22.228C107.289 21.94 107.487 21.796 107.703 21.796C107.919 21.796 108.117 21.922 108.297 22.174C108.477 22.39 108.495 22.642 108.351 22.93C107.883 23.866 107.235 25.108 106.407 26.656C105.579 28.204 104.643 29.572 103.599 30.76C102.447 32.128 101.205 33.154 99.8726 33.838C98.5766 34.486 97.0286 34.81 95.2286 34.81ZM95.4986 23.146C97.1186 22.534 98.5406 21.436 99.7646 19.852C101.025 18.268 101.871 16.522 102.303 14.614C102.339 14.434 102.357 14.272 102.357 14.128C102.393 13.984 102.411 13.84 102.411 13.696C102.411 12.976 102.195 12.616 101.763 12.616C101.403 12.616 101.025 12.868 100.629 13.372C100.053 14.056 99.4406 14.992 98.7926 16.18C98.1446 17.332 97.5686 18.466 97.0646 19.582C96.5606 20.698 96.1826 21.544 95.9306 22.12L95.4986 23.146ZM114.02 34.432C112.22 34.432 110.942 33.928 110.186 32.92C109.466 31.876 109.106 30.688 109.106 29.356C109.106 28.168 109.358 26.854 109.862 25.414C110.366 23.938 110.978 22.462 111.698 20.986C112.454 19.474 113.228 18.034 114.02 16.666C114.812 15.298 115.496 14.074 116.072 12.994C115.712 13.066 115.334 13.138 114.938 13.21C114.578 13.246 114.218 13.264 113.858 13.264C113.03 13.264 112.31 13.138 111.698 12.886C111.662 13.03 111.608 13.174 111.536 13.318C111.464 13.462 111.41 13.57 111.374 13.642C110.582 15.73 109.736 17.764 108.836 19.744C107.936 21.724 107.126 23.344 106.406 24.604C105.938 25.432 105.524 25.846 105.164 25.846C104.876 25.846 104.732 25.63 104.732 25.198C104.732 24.91 104.804 24.64 104.948 24.388C105.668 23.02 106.496 21.292 107.432 19.204C108.404 17.116 109.286 14.992 110.078 12.832C110.114 12.76 110.15 12.634 110.186 12.454C110.258 12.238 110.312 12.058 110.348 11.914C109.88 11.338 109.646 10.582 109.646 9.646C109.646 9.034 109.808 8.44 110.132 7.864C110.456 7.252 110.96 6.946 111.644 6.946C112.04 6.946 112.4 7.09 112.724 7.378C113.084 7.666 113.264 8.116 113.264 8.728C113.264 9.448 113.012 10.24 112.508 11.104C112.58 11.356 112.814 11.554 113.21 11.698C113.606 11.806 114.038 11.86 114.506 11.86C115.01 11.86 115.496 11.788 115.964 11.644C116.468 11.5 116.81 11.284 116.99 10.996C117.314 10.564 117.854 10.348 118.61 10.348C119.258 10.348 119.978 10.528 120.77 10.888C121.202 11.104 121.562 11.428 121.85 11.86C122.138 12.256 122.282 12.76 122.282 13.372C122.282 14.452 121.814 15.82 120.878 17.476C119.87 19.348 118.826 21.364 117.746 23.524C116.702 25.684 115.928 27.628 115.424 29.356C115.28 29.824 115.208 30.274 115.208 30.706C115.208 31.462 115.442 31.84 115.91 31.84C116.414 31.84 116.972 31.516 117.584 30.868C118.232 30.22 118.862 29.446 119.474 28.546C120.266 27.394 120.986 26.17 121.634 24.874C122.318 23.578 122.786 22.678 123.038 22.174C123.146 21.958 123.308 21.85 123.524 21.85C123.74 21.85 123.938 21.976 124.118 22.228C124.334 22.444 124.37 22.696 124.226 22.984C123.758 23.956 123.11 25.216 122.282 26.764C121.454 28.276 120.518 29.698 119.474 31.03C118.718 32.002 117.89 32.812 116.99 33.46C116.09 34.108 115.1 34.432 114.02 34.432ZM126.734 34.378C124.538 34.378 122.72 33.73 121.28 32.434C119.84 31.138 119.12 29.338 119.12 27.034C119.12 26.242 119.21 25.414 119.39 24.55C119.57 23.686 119.858 22.948 120.254 22.336C120.65 21.724 121.172 21.418 121.82 21.418C122.216 21.418 122.504 21.544 122.684 21.796C123.116 20.968 123.584 20.14 124.088 19.312C124.592 18.484 125.096 17.638 125.6 16.774C126.176 15.838 126.842 14.812 127.598 13.696C128.39 12.544 129.29 11.536 130.298 10.672C131.306 9.772 132.404 9.268 133.592 9.16C133.736 9.124 133.88 9.106 134.024 9.106C134.204 9.106 134.366 9.106 134.51 9.106C134.906 9.106 135.32 9.124 135.752 9.16C136.184 9.196 136.508 9.232 136.724 9.268C136.796 9.304 136.85 9.412 136.886 9.592C136.922 9.772 136.832 9.862 136.616 9.862C136.472 9.862 136.184 9.97 135.752 10.186C135.32 10.366 135.068 10.816 134.996 11.536C134.924 14.056 134.762 16.576 134.51 19.096C134.294 21.616 133.952 23.722 133.484 25.414C133.268 26.278 132.926 27.214 132.458 28.222C131.99 29.23 131.432 30.13 130.784 30.922C130.136 31.714 129.452 32.254 128.732 32.542C129.452 32.542 130.208 32.326 131 31.894C131.828 31.426 132.584 30.868 133.268 30.22C133.988 29.572 134.528 28.996 134.888 28.492C135.68 27.376 136.4 26.206 137.048 24.982C137.732 23.722 138.236 22.75 138.56 22.066C138.668 21.886 138.794 21.796 138.938 21.796C139.118 21.796 139.28 21.904 139.424 22.12C139.568 22.336 139.64 22.57 139.64 22.822C139.64 22.894 139.622 22.966 139.586 23.038C139.586 23.11 139.568 23.182 139.532 23.254C138.884 24.55 138.164 25.864 137.372 27.196C136.616 28.492 135.734 29.698 134.726 30.814C133.718 31.894 132.566 32.758 131.27 33.406C129.974 34.054 128.462 34.378 126.734 34.378ZM123.224 30.976C123.62 30.976 124.016 30.85 124.412 30.598C124.808 30.346 125.132 29.95 125.384 29.41C125.924 28.222 126.41 26.854 126.842 25.306C127.274 23.758 127.652 22.228 127.976 20.716C128.3 19.168 128.57 17.8 128.786 16.612C129.038 15.388 129.218 14.506 129.326 13.966C128.786 14.614 128.12 15.532 127.328 16.72C126.572 17.908 125.834 19.096 125.114 20.284C124.43 21.472 123.908 22.426 123.548 23.146C123.584 23.974 123.26 24.712 122.576 25.36C121.892 26.008 121.298 26.674 120.794 27.358V27.952C120.794 28.096 120.794 28.276 120.794 28.492C120.83 28.708 120.866 28.906 120.902 29.086C121.082 29.662 121.388 30.13 121.82 30.49C122.288 30.814 122.756 30.976 123.224 30.976Z" fill="#FEF7EB"/>
</svg>
