<svg width="181" height="172" viewBox="0 0 181 172" fill="none" xmlns="http://www.w3.org/2000/svg">
<g filter="url(#filter0_d_843_1361)">
<rect x="30" y="20" width="121" height="112" rx="56" fill="#4B5548"/>
</g>
<path d="M105.224 70.0346C105.224 66.9696 103.724 64.0301 101.054 61.8629C98.384 59.6956 94.7628 58.478 90.9869 58.478C87.2111 58.478 83.5898 59.6956 80.9199 61.8629C78.25 64.0301 76.75 66.9696 76.75 70.0346C76.75 70.6476 77.05 71.2355 77.584 71.6689C78.118 72.1024 78.8422 72.3459 79.5974 72.3459C80.3526 72.3459 81.0768 72.1024 81.6108 71.6689C82.1448 71.2355 82.4448 70.6476 82.4448 70.0346C82.4448 68.6632 82.9458 67.3226 83.8844 66.1823C84.823 65.042 86.1571 64.1533 87.718 63.6285C89.2789 63.1037 90.9964 62.9663 92.6534 63.2339C94.3104 63.5014 95.8325 64.1618 97.0271 65.1316C98.2218 66.1013 99.0353 67.3368 99.3649 68.6819C99.6945 70.0269 99.5254 71.4211 98.8788 72.6881C98.2323 73.9551 97.1374 75.0381 95.7327 75.8C94.3279 76.5619 92.6764 76.9685 90.9869 76.9685C90.2318 76.9685 89.5075 77.2121 88.9735 77.6455C88.4395 78.079 88.1395 78.6669 88.1395 79.2799V83.9025C88.1395 84.5155 88.4395 85.1034 88.9735 85.5368C89.5075 85.9703 90.2318 86.2138 90.9869 86.2138C91.7421 86.2138 92.4663 85.9703 93.0003 85.5368C93.5343 85.1034 93.8343 84.5155 93.8343 83.9025V81.36C97.05 80.8272 99.9402 79.4089 102.016 77.3451C104.091 75.2813 105.225 72.6987 105.224 70.0346Z" fill="white"/>
<path d="M90.987 95.4586C92.5596 95.4586 93.8344 94.4238 93.8344 93.1473C93.8344 91.8707 92.5596 90.8359 90.987 90.8359C89.4145 90.8359 88.1396 91.8707 88.1396 93.1473C88.1396 94.4238 89.4145 95.4586 90.987 95.4586Z" fill="white"/>
<defs>
<filter id="filter0_d_843_1361" x="0" y="0" width="181" height="172" filterUnits="userSpaceOnUse" color-interpolation-filters="sRGB">
<feFlood flood-opacity="0" result="BackgroundImageFix"/>
<feColorMatrix in="SourceAlpha" type="matrix" values="0 0 0 0 0 0 0 0 0 0 0 0 0 0 0 0 0 0 127 0" result="hardAlpha"/>
<feOffset dy="10"/>
<feGaussianBlur stdDeviation="15"/>
<feColorMatrix type="matrix" values="0 0 0 0 0 0 0 0 0 0 0 0 0 0 0 0 0 0 0.25 0"/>
<feBlend mode="normal" in2="BackgroundImageFix" result="effect1_dropShadow_843_1361"/>
<feBlend mode="normal" in="SourceGraphic" in2="effect1_dropShadow_843_1361" result="shape"/>
</filter>
</defs>
</svg>
