<svg width="38" height="287" viewBox="0 0 38 287" fill="none" xmlns="http://www.w3.org/2000/svg">
<path d="M11.32 274.424H13.552V278.864H28V281.6H13.552V286.064H11.32L11.32 274.424ZM16.696 269.397C16.024 268.997 15.504 268.469 15.136 267.813C14.752 267.141 14.56 266.349 14.56 265.437H17.392V266.133C17.392 267.205 17.664 268.021 18.208 268.581C18.752 269.125 19.696 269.397 21.04 269.397H28V272.133H14.776V269.397H16.696ZM21.064 251.282C21.56 251.282 22.008 251.314 22.408 251.378V261.482C23.464 261.402 24.312 261.01 24.952 260.306C25.592 259.602 25.912 258.738 25.912 257.714C25.912 256.242 25.296 255.202 24.064 254.594V251.642C25.28 252.042 26.28 252.77 27.064 253.826C27.832 254.866 28.216 256.162 28.216 257.714C28.216 258.978 27.936 260.114 27.376 261.122C26.8 262.114 26 262.898 24.976 263.474C23.936 264.034 22.736 264.314 21.376 264.314C20.016 264.314 18.824 264.042 17.8 263.498C16.76 262.938 15.96 262.162 15.4 261.17C14.84 260.162 14.56 259.01 14.56 257.714C14.56 256.466 14.832 255.354 15.376 254.378C15.92 253.402 16.688 252.642 17.68 252.098C18.656 251.554 19.784 251.282 21.064 251.282ZM20.2 254.138C19.192 254.154 18.384 254.514 17.776 255.218C17.168 255.922 16.864 256.794 16.864 257.834C16.864 258.778 17.168 259.586 17.776 260.258C18.368 260.93 19.176 261.33 20.2 261.458V254.138ZM14.56 242.398C14.56 241.358 14.776 240.43 15.208 239.614C15.64 238.782 16.28 238.134 17.128 237.67C17.976 237.206 19 236.974 20.2 236.974H28V239.686H20.608C19.424 239.686 18.52 239.982 17.896 240.574C17.256 241.166 16.936 241.974 16.936 242.998C16.936 244.022 17.256 244.838 17.896 245.446C18.52 246.038 19.424 246.334 20.608 246.334H28V249.07H14.776V246.334H16.288C15.744 245.886 15.32 245.318 15.016 244.63C14.712 243.926 14.56 243.182 14.56 242.398ZM21.328 234.876C20 234.876 18.824 234.604 17.8 234.06C16.776 233.5 15.984 232.748 15.424 231.804C14.848 230.844 14.56 229.78 14.56 228.612C14.56 227.748 14.752 226.9 15.136 226.068C15.504 225.22 16 224.548 16.624 224.052H10.24V221.292H28V224.052H26.008C26.648 224.5 27.176 225.124 27.592 225.924C28.008 226.708 28.216 227.612 28.216 228.636C28.216 229.788 27.928 230.844 27.352 231.804C26.76 232.748 25.944 233.5 24.904 234.06C23.848 234.604 22.656 234.876 21.328 234.876ZM21.376 224.052C20.464 224.052 19.672 224.244 19 224.628C18.328 224.996 17.816 225.484 17.464 226.092C17.112 226.7 16.936 227.356 16.936 228.06C16.936 228.764 17.112 229.42 17.464 230.028C17.8 230.636 18.304 231.132 18.976 231.516C19.632 231.884 20.416 232.068 21.328 232.068C22.24 232.068 23.04 231.884 23.728 231.516C24.416 231.132 24.944 230.636 25.312 230.028C25.664 229.404 25.84 228.748 25.84 228.06C25.84 227.356 25.664 226.7 25.312 226.092C24.96 225.484 24.448 224.996 23.776 224.628C23.088 224.244 22.288 224.052 21.376 224.052ZM13.024 216.786C13.024 217.282 12.856 217.698 12.52 218.034C12.184 218.37 11.768 218.538 11.272 218.538C10.776 218.538 10.36 218.37 10.024 218.034C9.688 217.698 9.52 217.282 9.52 216.786C9.52 216.306 9.688 215.898 10.024 215.562C10.36 215.226 10.776 215.058 11.272 215.058C11.768 215.058 12.184 215.226 12.52 215.562C12.856 215.898 13.024 216.306 13.024 216.786ZM14.776 215.442H28V218.178H14.776V215.442ZM14.56 205.658C14.56 204.618 14.776 203.69 15.208 202.874C15.64 202.042 16.28 201.394 17.128 200.93C17.976 200.466 19 200.234 20.2 200.234H28V202.946H20.608C19.424 202.946 18.52 203.242 17.896 203.834C17.256 204.426 16.936 205.234 16.936 206.258C16.936 207.282 17.256 208.098 17.896 208.706C18.52 209.298 19.424 209.594 20.608 209.594H28V212.33H14.776V209.594H16.288C15.744 209.146 15.32 208.578 15.016 207.89C14.712 207.186 14.56 206.442 14.56 205.658ZM14.56 191.896C14.56 190.872 14.768 189.968 15.184 189.184C15.584 188.384 16.088 187.76 16.696 187.312H14.776V184.552H28.216C29.432 184.552 30.512 184.808 31.456 185.32C32.416 185.832 33.168 186.576 33.712 187.552C34.256 188.512 34.528 189.664 34.528 191.008C34.528 192.8 34.104 194.288 33.256 195.472C32.424 196.656 31.288 197.328 29.848 197.488V194.776C30.536 194.568 31.088 194.128 31.504 193.456C31.936 192.768 32.152 191.952 32.152 191.008C32.152 189.904 31.816 189.016 31.144 188.344C30.472 187.656 29.496 187.312 28.216 187.312H26.008C26.632 187.776 27.16 188.408 27.592 189.208C28.008 189.992 28.216 190.888 28.216 191.896C28.216 193.048 27.928 194.104 27.352 195.064C26.76 196.008 25.944 196.76 24.904 197.32C23.848 197.864 22.656 198.136 21.328 198.136C20 198.136 18.824 197.864 17.8 197.32C16.776 196.76 15.984 196.008 15.424 195.064C14.848 194.104 14.56 193.048 14.56 191.896ZM21.376 187.312C20.464 187.312 19.672 187.504 19 187.888C18.328 188.256 17.816 188.744 17.464 189.352C17.112 189.96 16.936 190.616 16.936 191.32C16.936 192.024 17.112 192.68 17.464 193.288C17.8 193.896 18.304 194.392 18.976 194.776C19.632 195.144 20.416 195.328 21.328 195.328C22.24 195.328 23.04 195.144 23.728 194.776C24.416 194.392 24.944 193.896 25.312 193.288C25.664 192.664 25.84 192.008 25.84 191.32C25.84 190.616 25.664 189.96 25.312 189.352C24.96 188.744 24.448 188.256 23.776 187.888C23.088 187.504 22.288 187.312 21.376 187.312ZM16.744 172.948C16.104 172.484 15.584 171.852 15.184 171.052C14.768 170.236 14.56 169.332 14.56 168.34C14.56 167.172 14.84 166.116 15.4 165.172C15.96 164.228 16.76 163.484 17.8 162.94C18.824 162.396 20 162.124 21.328 162.124C22.656 162.124 23.848 162.396 24.904 162.94C25.944 163.484 26.76 164.236 27.352 165.196C27.928 166.14 28.216 167.188 28.216 168.34C28.216 169.364 28.016 170.276 27.616 171.076C27.216 171.86 26.704 172.484 26.08 172.948H28V175.684H10.24V172.948H16.744ZM21.328 164.908C20.416 164.908 19.632 165.1 18.976 165.484C18.304 165.852 17.8 166.348 17.464 166.972C17.112 167.58 16.936 168.236 16.936 168.94C16.936 169.628 17.112 170.284 17.464 170.908C17.816 171.516 18.328 172.012 19 172.396C19.672 172.764 20.464 172.948 21.376 172.948C22.288 172.948 23.088 172.764 23.776 172.396C24.448 172.012 24.96 171.516 25.312 170.908C25.664 170.284 25.84 169.628 25.84 168.94C25.84 168.236 25.664 167.58 25.312 166.972C24.944 166.348 24.416 165.852 23.728 165.484C23.04 165.1 22.24 164.908 21.328 164.908ZM28.216 154.162C28.216 155.41 27.936 156.538 27.376 157.546C26.8 158.554 26 159.346 24.976 159.922C23.936 160.498 22.736 160.786 21.376 160.786C20.032 160.786 18.84 160.49 17.8 159.898C16.76 159.306 15.96 158.498 15.4 157.474C14.84 156.45 14.56 155.306 14.56 154.042C14.56 152.778 14.84 151.634 15.4 150.61C15.96 149.586 16.76 148.778 17.8 148.186C18.84 147.594 20.032 147.298 21.376 147.298C22.72 147.298 23.912 147.602 24.952 148.21C25.992 148.818 26.8 149.65 27.376 150.706C27.936 151.746 28.216 152.898 28.216 154.162ZM25.84 154.162C25.84 153.458 25.672 152.802 25.336 152.194C25 151.57 24.496 151.066 23.824 150.682C23.152 150.298 22.336 150.106 21.376 150.106C20.416 150.106 19.608 150.29 18.952 150.658C18.28 151.026 17.776 151.514 17.44 152.122C17.104 152.73 16.936 153.386 16.936 154.09C16.936 154.794 17.104 155.45 17.44 156.058C17.776 156.65 18.28 157.122 18.952 157.474C19.608 157.826 20.416 158.002 21.376 158.002C22.8 158.002 23.904 157.642 24.688 156.922C25.456 156.186 25.84 155.266 25.84 154.162ZM28.216 139.338C28.216 140.586 27.936 141.714 27.376 142.722C26.8 143.73 26 144.522 24.976 145.098C23.936 145.674 22.736 145.962 21.376 145.962C20.032 145.962 18.84 145.666 17.8 145.074C16.76 144.482 15.96 143.674 15.4 142.65C14.84 141.626 14.56 140.482 14.56 139.218C14.56 137.954 14.84 136.81 15.4 135.786C15.96 134.762 16.76 133.954 17.8 133.362C18.84 132.77 20.032 132.474 21.376 132.474C22.72 132.474 23.912 132.778 24.952 133.386C25.992 133.994 26.8 134.826 27.376 135.882C27.936 136.922 28.216 138.074 28.216 139.338ZM25.84 139.338C25.84 138.634 25.672 137.978 25.336 137.37C25 136.746 24.496 136.242 23.824 135.858C23.152 135.474 22.336 135.282 21.376 135.282C20.416 135.282 19.608 135.466 18.952 135.834C18.28 136.202 17.776 136.69 17.44 137.298C17.104 137.906 16.936 138.562 16.936 139.266C16.936 139.97 17.104 140.626 17.44 141.234C17.776 141.826 18.28 142.298 18.952 142.65C19.608 143.002 20.416 143.178 21.376 143.178C22.8 143.178 23.904 142.818 24.688 142.098C25.456 141.362 25.84 140.442 25.84 139.338ZM21.4 125.017L28 118.921V122.617L22.312 127.513H28V130.249H10.24V127.513H20.56L14.776 122.713L14.776 118.921L21.4 125.017ZM21.376 112.598C20.016 112.598 18.824 112.326 17.8 111.782C16.76 111.222 15.96 110.454 15.4 109.478C14.84 108.502 14.56 107.382 14.56 106.118C14.56 104.518 14.944 103.198 15.712 102.158C16.464 101.102 17.544 100.39 18.952 100.022V102.974C18.296 103.214 17.784 103.598 17.416 104.126C17.048 104.654 16.864 105.318 16.864 106.118C16.864 107.238 17.264 108.134 18.064 108.806C18.848 109.462 19.952 109.79 21.376 109.79C22.8 109.79 23.912 109.462 24.712 108.806C25.512 108.134 25.912 107.238 25.912 106.118C25.912 104.534 25.216 103.486 23.824 102.974V100.022C25.168 100.406 26.24 101.126 27.04 102.182C27.824 103.238 28.216 104.55 28.216 106.118C28.216 107.382 27.936 108.502 27.376 109.478C26.8 110.454 26 111.222 24.976 111.782C23.936 112.326 22.736 112.598 21.376 112.598ZM28.216 92.039C28.216 93.287 27.936 94.415 27.376 95.423C26.8 96.431 26 97.223 24.976 97.799C23.936 98.375 22.736 98.663 21.376 98.663C20.032 98.663 18.84 98.367 17.8 97.775C16.76 97.183 15.96 96.375 15.4 95.351C14.84 94.327 14.56 93.183 14.56 91.919C14.56 90.655 14.84 89.511 15.4 88.487C15.96 87.463 16.76 86.655 17.8 86.063C18.84 85.471 20.032 85.175 21.376 85.175C22.72 85.175 23.912 85.479 24.952 86.087C25.992 86.695 26.8 87.527 27.376 88.583C27.936 89.623 28.216 90.775 28.216 92.039ZM25.84 92.039C25.84 91.335 25.672 90.679 25.336 90.071C25 89.447 24.496 88.943 23.824 88.559C23.152 88.175 22.336 87.983 21.376 87.983C20.416 87.983 19.608 88.167 18.952 88.535C18.28 88.903 17.776 89.391 17.44 89.999C17.104 90.607 16.936 91.263 16.936 91.967C16.936 92.671 17.104 93.327 17.44 93.935C17.776 94.527 18.28 94.999 18.952 95.351C19.608 95.703 20.416 95.879 21.376 95.879C22.8 95.879 23.904 95.519 24.688 94.799C25.456 94.063 25.84 93.143 25.84 92.039ZM10.24 80.2143H28V82.9503H10.24V80.2143ZM10.24 74.3662H28V77.1022H10.24L10.24 74.3662ZM21.064 59.1341C21.56 59.1341 22.008 59.1661 22.408 59.2301L22.408 69.3341C23.464 69.2541 24.312 68.8621 24.952 68.1581C25.592 67.4541 25.912 66.5901 25.912 65.5661C25.912 64.0941 25.296 63.0541 24.064 62.4461V59.4941C25.28 59.8941 26.28 60.6221 27.064 61.6781C27.832 62.7181 28.216 64.0141 28.216 65.5661C28.216 66.8301 27.936 67.9661 27.376 68.9741C26.8 69.9661 26 70.7501 24.976 71.3261C23.936 71.8861 22.736 72.1661 21.376 72.1661C20.016 72.1661 18.824 71.8941 17.8 71.3501C16.76 70.7901 15.96 70.0141 15.4 69.0221C14.84 68.0141 14.56 66.8621 14.56 65.5661C14.56 64.3181 14.832 63.2061 15.376 62.2301C15.92 61.2541 16.688 60.4941 17.68 59.9501C18.656 59.4061 19.784 59.1341 21.064 59.1341ZM20.2 61.9901C19.192 62.0061 18.384 62.3661 17.776 63.0701C17.168 63.7741 16.864 64.6461 16.864 65.6861C16.864 66.6301 17.168 67.4381 17.776 68.1101C18.368 68.7821 19.176 69.1821 20.2 69.3101L20.2 61.9901ZM21.376 57.8336C20.016 57.8336 18.824 57.5616 17.8 57.0176C16.76 56.4576 15.96 55.6896 15.4 54.7136C14.84 53.7376 14.56 52.6176 14.56 51.3536C14.56 49.7536 14.944 48.4336 15.712 47.3936C16.464 46.3376 17.544 45.6256 18.952 45.2576V48.2096C18.296 48.4496 17.784 48.8336 17.416 49.3616C17.048 49.8896 16.864 50.5536 16.864 51.3536C16.864 52.4736 17.264 53.3696 18.064 54.0416C18.848 54.6976 19.952 55.0256 21.376 55.0256C22.8 55.0256 23.912 54.6976 24.712 54.0416C25.512 53.3696 25.912 52.4736 25.912 51.3536C25.912 49.7696 25.216 48.7216 23.824 48.2096V45.2576C25.168 45.6416 26.24 46.3616 27.04 47.4176C27.824 48.4736 28.216 49.7856 28.216 51.3536C28.216 52.6176 27.936 53.7376 27.376 54.7136C26.8 55.6896 26 56.4576 24.976 57.0176C23.936 57.5616 22.736 57.8336 21.376 57.8336ZM17.008 39.8189H24.328C24.824 39.8189 25.184 39.7069 25.408 39.4829C25.616 39.2429 25.72 38.8429 25.72 38.2829V36.6029H28L28 38.7629C28 39.9949 27.712 40.9389 27.136 41.5949C26.56 42.2509 25.624 42.5789 24.328 42.5789H17.008V44.1389H14.776V42.5789H11.488V39.8189H14.776V36.6029H17.008V39.8189ZM13.024 33.1693C13.024 33.6653 12.856 34.0813 12.52 34.4173C12.184 34.7533 11.768 34.9213 11.272 34.9213C10.776 34.9213 10.36 34.7533 10.024 34.4173C9.688 34.0813 9.52 33.6653 9.52 33.1693C9.52 32.6893 9.688 32.2813 10.024 31.9453C10.36 31.6093 10.776 31.4413 11.272 31.4413C11.768 31.4413 12.184 31.6093 12.52 31.9453C12.856 32.2813 13.024 32.6893 13.024 33.1693ZM14.776 31.8253H28V34.5613H14.776V31.8253ZM28.216 22.9771C28.216 24.2251 27.936 25.3531 27.376 26.3611C26.8 27.3691 26 28.1611 24.976 28.7371C23.936 29.3131 22.736 29.6011 21.376 29.6011C20.032 29.6011 18.84 29.3051 17.8 28.7131C16.76 28.1211 15.96 27.3131 15.4 26.2891C14.84 25.2651 14.56 24.1211 14.56 22.8571C14.56 21.5931 14.84 20.4491 15.4 19.4251C15.96 18.4011 16.76 17.5931 17.8 17.0011C18.84 16.4091 20.032 16.1131 21.376 16.1131C22.72 16.1131 23.912 16.4171 24.952 17.0251C25.992 17.6331 26.8 18.4651 27.376 19.5211C27.936 20.5611 28.216 21.7131 28.216 22.9771ZM25.84 22.9771C25.84 22.2731 25.672 21.6171 25.336 21.0091C25 20.3851 24.496 19.8811 23.824 19.4971C23.152 19.1131 22.336 18.9211 21.376 18.9211C20.416 18.9211 19.608 19.1051 18.952 19.4731C18.28 19.8411 17.776 20.3291 17.44 20.9371C17.104 21.5451 16.936 22.2011 16.936 22.9051C16.936 23.6091 17.104 24.2651 17.44 24.8731C17.776 25.4651 18.28 25.9371 18.952 26.2891C19.608 26.6411 20.416 26.8171 21.376 26.8171C22.8 26.8171 23.904 26.4571 24.688 25.7371C25.456 25.0011 25.84 24.0811 25.84 22.9771ZM14.56 7.21645C14.56 6.17645 14.776 5.24845 15.208 4.43245C15.64 3.60045 16.28 2.95245 17.128 2.48845C17.976 2.02445 19 1.79244 20.2 1.79244H28V4.50445H20.608C19.424 4.50445 18.52 4.80045 17.896 5.39245C17.256 5.98445 16.936 6.79245 16.936 7.81645C16.936 8.84045 17.256 9.65645 17.896 10.2644C18.52 10.8564 19.424 11.1524 20.608 11.1524H28V13.8884H14.776V11.1524H16.288C15.744 10.7044 15.32 10.1364 15.016 9.44845C14.712 8.74445 14.56 8.00045 14.56 7.21645Z" fill="black"/>
<line x1="1.5" x2="1.5" y2="108" stroke="#006B61" stroke-width="3"/>
<line x1="1.5" y1="179" x2="1.5" y2="287" stroke="#006B61" stroke-width="3"/>
</svg>
